<?xml version="1.0" encoding="utf-8"?>
<!-- Generator: Adobe Illustrator 18.0.0, SVG Export Plug-In . SVG Version: 6.00 Build 0)  -->
<svg version="1.2" baseProfile="tiny" id="Layer_1" xmlns="http://www.w3.org/2000/svg" xmlns:xlink="http://www.w3.org/1999/xlink"
	 x="0px" y="0px" viewBox="0 0 250 100" overflow="inherit" xml:space="preserve">
<g>
	<g>
		<path fill="#00B7F7" d="M67.6,41.7l-8.1,17.2c-0.7,1.6-1.1,2.6-1.1,3.1c0,0.5,0.3,1,0.8,1.5c-4,0.9-7.7,1.3-11.1,1.3
			c-2.1,0-3.1-0.3-3.1-1c0-0.4,0.4-1.4,1.2-3.1L55,41.7l-0.9,0c-3.6,0-7.5,0.4-11.6,1.1c1.9-1.8,3.7-2.9,5.2-3.4
			c1.5-0.5,3.9-0.8,7.2-0.8l1.6,0l7.1-14.9l-1.3,0c-8.7,0-15.7,1-20.8,3c1.5-2.6,4.2-4.4,8.1-5.3c2.7-0.6,11.2-0.9,25.3-1l15.8,0
			c11.8,0,21.6-0.5,29.4-1.4c-2.5,1.8-5,3-7.7,3.6c-2.7,0.6-6.8,0.9-12.5,0.9l-5.3,0l-18.4,0l-7,14.9l13,0c8,0,14.7-0.5,19.9-1.3
			c-1.9,1.9-4.1,3.1-6.6,3.6c-2.5,0.5-7.4,0.8-14.7,0.8L67.6,41.7z"/>
		<path fill="#10D600" d="M111.8,33.7c-1-0.9-1.5-1.7-1.5-2.7c0-3,5.5-5.7,16.4-8.1c11-2.4,23.5-3.6,37.4-3.6
			c14.7,0,26.2,1.3,34.7,3.9c8.5,2.7,12.7,6.3,12.7,11c0.1,6.2-6.4,11.7-19.5,16.5c-6.9,2.5-15.5,4.6-25.9,6.2
			c-10.4,1.6-20.3,2.4-29.8,2.5c-9.1,0-13.7-1.4-13.7-4.2c0-1,0.8-3.2,2.3-6.4l7.7-16.3c0.7-1.4,1-2.4,1-3c0-0.6-0.5-1.1-1.5-1.6
			c5.3-0.8,9-1.3,11.1-1.3c2.5,0,3.7,0.6,3.7,1.8c0,0.3-0.6,1.7-1.9,4.4l-6.4,13.6c-1.6,3.5-2.4,5.6-2.4,6.5c0,1,0.8,1.7,2.5,2
			c1.6,0.4,4.7,0.5,9.2,0.5c14.5,0,26.7-1.9,36.5-5.6c9.8-3.7,14.6-8.2,14.6-13.7c0-4.2-3.6-7.5-10.8-10c-7.1-2.5-16.6-3.7-28.5-3.7
			c-9.6,0-18.6,1-27,2.9C124.3,27.5,117.3,30.2,111.8,33.7z"/>
	</g>
	<g>
		<path d="M38.8,74.6h-0.2c-0.9,0-1.7,0.1-2.3,0.4c0.1-0.5,0.4-0.8,0.6-1c0.3-0.1,0.9-0.2,1.7-0.2H39l0.3-1c0.4-1.4,1-2.3,1.9-2.9
			c1.1-0.7,2.3-1.1,3.6-1.1c0.5,0,1,0.1,1.3,0.2c0.4,0.2,0.6,0.4,0.6,0.6c0,0.2-0.4,0.5-1.2,0.8c-0.2-0.6-0.7-0.9-1.5-0.9
			c-1.4,0-2.3,1-2.9,3l-0.4,1.3h3.1c1.4,0,2.5-0.1,3.1-0.2c-0.3,0.4-0.6,0.7-1,0.8c-0.4,0.1-1.3,0.1-2.8,0.1h-2.7l-1.5,5.2
			c-0.1,0.5-0.2,0.9-0.2,1.3c0,0.2,0.1,0.5,0.2,0.6c-0.6,0.1-1.1,0.2-1.4,0.2c-0.5,0-0.7-0.2-0.7-0.6c0-0.3,0.1-0.8,0.3-1.5
			L38.8,74.6z"/>
		<path d="M46.3,79.4c-0.4,0.1-0.7,0.2-1,0.2c-0.6,0-0.9-0.2-0.9-0.5c0-0.2,0.1-0.6,0.3-1.4l0.4-1.5c0.3-0.9,0.4-1.6,0.4-2
			c0-0.2-0.1-0.4-0.3-0.6c0.6-0.1,1.1-0.2,1.5-0.2c0.4,0,0.6,0.2,0.6,0.5c0,0.2-0.1,0.8-0.4,1.8l-0.5,1.8c1.1-1.5,2.3-2.6,3.4-3.5
			c1.1-0.8,2.2-1.2,3.1-1.2c0.3,0,0.6,0.1,0.8,0.2c0.2,0.1,0.4,0.3,0.4,0.5c0,0.3-0.5,0.7-1.4,1.1c-0.2-0.3-0.5-0.5-1-0.5
			c-0.8,0-1.7,0.5-2.9,1.6c-0.7,0.7-1.4,1.4-1.9,2.1c-0.5,0.7-0.8,1.2-0.8,1.5L46.3,79.4z"/>
		<path d="M55.8,76.9c0,1.2,0.7,1.8,2.2,1.8c1.3,0,2.7-0.4,4.2-1.2c1.5-0.8,2.9-1.9,4.2-3.3l0.8,0.3c-1.2,1.5-2.7,2.7-4.6,3.7
			s-3.6,1.5-5.3,1.5c-1.1,0-1.9-0.2-2.5-0.7c-0.6-0.5-0.9-1.1-0.9-1.9c0-1.2,0.6-2.2,1.7-3c1.1-0.8,2.5-1.2,4.1-1.2
			c0.8,0,1.4,0.1,1.8,0.4c0.5,0.3,0.7,0.6,0.7,1.1c0,0.7-0.6,1.4-1.9,1.9C59,76.6,57.5,76.9,55.8,76.9z M55.9,76.3
			c1.2,0,2.3-0.3,3.2-0.7s1.3-0.9,1.3-1.5c0-0.5-0.3-0.8-1-0.8c-0.8,0-1.6,0.3-2.2,0.9C56.5,74.7,56.1,75.5,55.9,76.3z"/>
		<path d="M66.5,76.9c0,1.2,0.7,1.8,2.2,1.8c1.3,0,2.7-0.4,4.2-1.2c1.5-0.8,2.9-1.9,4.2-3.3l0.8,0.3c-1.2,1.5-2.7,2.7-4.6,3.7
			s-3.6,1.5-5.3,1.5c-1.1,0-1.9-0.2-2.5-0.7c-0.6-0.5-0.9-1.1-0.9-1.9c0-1.2,0.6-2.2,1.7-3c1.1-0.8,2.5-1.2,4.1-1.2
			c0.8,0,1.4,0.1,1.8,0.4c0.5,0.3,0.7,0.6,0.7,1.1c0,0.7-0.6,1.4-1.9,1.9C69.7,76.6,68.2,76.9,66.5,76.9z M66.6,76.3
			c1.2,0,2.3-0.3,3.2-0.7s1.3-0.9,1.3-1.5c0-0.5-0.3-0.8-1-0.8c-0.8,0-1.6,0.3-2.2,0.9C67.2,74.7,66.8,75.5,66.6,76.3z"/>
		<path d="M85.3,74.5c-1.2,1.6-2.5,2.8-3.7,3.7c-1.2,0.9-2.3,1.4-3.3,1.4c-0.7,0-1.3-0.2-1.7-0.5c-0.4-0.4-0.6-0.8-0.6-1.4
			c0-0.3,0.1-0.8,0.3-1.4l1.8-6.1c-0.2,0-0.4,0-0.6,0c-1.4,0-2.1-0.4-2.1-1.2v-0.1c0.7,0.3,1.5,0.4,2.4,0.4s1.7-0.2,2.4-0.5
			l-2.1,7.3c-0.2,0.7-0.3,1.1-0.3,1.4c0,0.7,0.4,1,1.1,1c0.7,0,1.4-0.3,2.2-0.8c0.7-0.5,1.9-1.7,3.6-3.5L85.3,74.5z"/>
		<path d="M90.5,75.7c-0.8,1.1-1.7,2-2.8,2.7c-1.1,0.7-2.1,1.1-2.9,1.1c-0.6,0-1.1-0.2-1.5-0.6c-0.4-0.4-0.6-0.9-0.6-1.5
			c0-1.3,0.6-2.4,1.7-3.3c1.1-1,2.4-1.4,3.9-1.4c0.9,0,1.9,0.2,2.9,0.6c0.2-0.4,0.8-0.6,1.9-0.6c0.1,0,0.2,0,0.3,0
			c-0.3,0.4-0.6,0.8-0.8,1.4l-0.2,0.5c-0.2,0.6-0.3,1.2-0.3,2c0,0.9,0.3,1.3,0.9,1.3c0.6,0,1.5-0.4,2.6-1.1c1.1-0.7,2.2-1.7,3.3-2.8
			l0.7,0.3c-1.1,1.3-2.4,2.4-3.8,3.3c-1.4,0.9-2.6,1.3-3.7,1.3c-1.3,0-1.9-0.7-1.9-2.2C90.5,76.6,90.5,76.2,90.5,75.7z M90.9,74.2
			c-1.3-0.6-2.3-0.8-3.1-0.8c-0.9,0-1.7,0.4-2.3,1.1s-1,1.6-1,2.6c0,0.8,0.4,1.2,1.2,1.2c0.9,0,2.5-1.3,4.9-3.8
			C90.6,74.6,90.7,74.4,90.9,74.2z"/>
		<path d="M100.3,77.2c2.1-3,4-4.6,5.7-4.6c1.3,0,2,0.9,2,2.7l0,0.7c0,0.8,0.1,1.4,0.2,1.8c0.1,0.3,0.4,0.5,0.7,0.5
			c0.5,0,1.1-0.3,1.7-0.8s1.7-1.7,3.2-3.3l0.8,0.3c-1.3,1.7-2.5,2.9-3.5,3.7c-1,0.8-2,1.2-2.8,1.2c-0.8,0-1.3-0.2-1.6-0.7
			c-0.3-0.5-0.5-1.4-0.5-2.6l0-0.5c0-0.7-0.1-1.1-0.2-1.4c-0.1-0.3-0.3-0.4-0.7-0.4c-0.8,0-2.1,1.1-3.8,3.2c-0.4,0.5-0.7,0.9-0.8,1
			c-0.5,0.5-0.7,0.9-0.7,1.2c0,0.1,0,0.2,0.1,0.3c-0.3,0.1-0.6,0.1-0.9,0.1c-0.6,0-0.9-0.2-0.9-0.7c0-0.1,0.1-0.7,0.2-1.7l0.2-1.3
			c0.1-0.6,0.1-1,0.1-1.3c0-0.4-0.1-0.8-0.4-1c0.1,0,0.3-0.1,0.6-0.1c0.4-0.1,0.7-0.1,0.9-0.1c0.5,0,0.7,0.2,0.7,0.7
			c0,0.2,0,0.7-0.1,1.2c0,0.1,0,0.3-0.1,0.4L100.3,77.2z"/>
		<path d="M125,74.4c-1.4,1.6-3,2.9-4.6,3.9s-3.1,1.4-4.5,1.4c-1.1,0-2.1-0.3-2.8-0.8c-0.7-0.5-1.1-1.2-1.1-2.1
			c0-1.1,0.6-2.1,1.8-2.9s2.7-1.3,4.3-1.3c0.7,0,1.2,0.1,1.7,0.3c0.4,0.2,0.6,0.4,0.6,0.7c0,0.4-0.6,0.8-1.7,1
			c0.1-0.1,0.1-0.2,0.1-0.3c0-0.7-0.5-1-1.5-1c-0.9,0-1.7,0.3-2.5,1c-0.7,0.7-1.1,1.4-1.1,2.2c0,0.7,0.2,1.2,0.7,1.6
			c0.5,0.4,1.1,0.6,1.9,0.6c2.2,0,4.8-1.5,7.7-4.6L125,74.4z"/>
		<path d="M124.4,76.9c0,1.2,0.7,1.8,2.2,1.8c1.3,0,2.7-0.4,4.2-1.2c1.5-0.8,2.9-1.9,4.2-3.3l0.8,0.3c-1.2,1.5-2.7,2.7-4.6,3.7
			c-1.9,1-3.6,1.5-5.3,1.5c-1.1,0-1.9-0.2-2.5-0.7c-0.6-0.5-0.9-1.1-0.9-1.9c0-1.2,0.6-2.2,1.7-3s2.5-1.2,4.1-1.2
			c0.8,0,1.4,0.1,1.8,0.4c0.5,0.3,0.7,0.6,0.7,1.1c0,0.7-0.6,1.4-1.9,1.9C127.5,76.6,126,76.9,124.4,76.9z M124.4,76.3
			c1.2,0,2.3-0.3,3.2-0.7c0.9-0.4,1.3-0.9,1.3-1.5c0-0.5-0.3-0.8-1-0.8c-0.8,0-1.6,0.3-2.2,0.9C125,74.7,124.6,75.5,124.4,76.3z"/>
		<path d="M135.4,79.4c-0.4,0.1-0.7,0.2-1,0.2c-0.6,0-0.9-0.2-0.9-0.5c0-0.2,0.1-0.6,0.3-1.4l0.4-1.5c0.3-0.9,0.4-1.6,0.4-2
			c0-0.2-0.1-0.4-0.3-0.6c0.6-0.1,1.1-0.2,1.5-0.2c0.4,0,0.6,0.2,0.6,0.5c0,0.2-0.1,0.8-0.4,1.8l-0.5,1.8c1.1-1.5,2.3-2.6,3.4-3.5
			c1.1-0.8,2.2-1.2,3.1-1.2c0.3,0,0.6,0.1,0.8,0.2c0.2,0.1,0.4,0.3,0.4,0.5c0,0.3-0.5,0.7-1.4,1.1c-0.2-0.3-0.5-0.5-1-0.5
			c-0.8,0-1.7,0.5-2.9,1.6c-0.7,0.7-1.4,1.4-1.9,2.1c-0.5,0.7-0.8,1.2-0.8,1.5L135.4,79.4z"/>
		<path d="M156.9,75.9c-0.9,1.1-1.9,2-2.9,2.7c-1,0.7-1.9,1-2.7,1c-0.6,0-1.1-0.2-1.5-0.6c-0.4-0.4-0.6-0.9-0.6-1.5
			c0-1.3,0.6-2.4,1.7-3.4c1.1-1,2.4-1.4,3.9-1.4c0.9,0,1.9,0.2,2.9,0.6l1-3.3c-0.5,0.1-1,0.1-1.3,0.1c-0.5,0-0.9-0.1-1.2-0.3
			c-0.2-0.2-0.4-0.5-0.6-0.9c0.4,0.2,1.1,0.3,2,0.3c1.1,0,2.2-0.1,3.2-0.4l-1.9,6.6c-0.2,0.7-0.3,1.4-0.3,1.9c0,0.7,0.3,1,0.9,1
			c0.6,0,1.5-0.5,2.9-1.4s2.4-1.9,3.3-2.9l0.7,0.3c-1.1,1.3-2.4,2.5-4,3.5c-1.6,1-2.9,1.6-3.8,1.6c-1.2,0-1.8-0.7-1.8-2
			C156.7,77,156.7,76.5,156.9,75.9z M157.4,74.2c-1.2-0.6-2.3-0.8-3.1-0.8c-0.9,0-1.7,0.4-2.3,1.1c-0.7,0.7-1,1.6-1,2.6
			c0,0.8,0.4,1.2,1.2,1.2c0.8,0,2.5-1.3,4.9-3.8C157.1,74.5,157.2,74.4,157.4,74.2z"/>
		<path d="M171.4,75.7c-0.8,1.1-1.7,2-2.8,2.7c-1.1,0.7-2.1,1.1-2.9,1.1c-0.6,0-1.1-0.2-1.5-0.6c-0.4-0.4-0.6-0.9-0.6-1.5
			c0-1.3,0.6-2.4,1.7-3.3c1.1-1,2.4-1.4,3.9-1.4c0.9,0,1.9,0.2,2.9,0.6c0.2-0.4,0.8-0.6,1.9-0.6c0.1,0,0.2,0,0.3,0
			c-0.3,0.4-0.6,0.8-0.8,1.4l-0.2,0.5c-0.2,0.6-0.3,1.2-0.3,2c0,0.9,0.3,1.3,0.9,1.3c0.6,0,1.5-0.4,2.6-1.1c1.1-0.7,2.2-1.7,3.3-2.8
			l0.7,0.3c-1.1,1.3-2.4,2.4-3.8,3.3c-1.4,0.9-2.6,1.3-3.7,1.3c-1.3,0-1.9-0.7-1.9-2.2C171.4,76.6,171.4,76.2,171.4,75.7z
			 M171.8,74.2c-1.3-0.6-2.3-0.8-3.1-0.8c-0.9,0-1.7,0.4-2.3,1.1s-1,1.6-1,2.6c0,0.8,0.4,1.2,1.2,1.2c0.9,0,2.5-1.3,4.9-3.8
			C171.5,74.6,171.6,74.4,171.8,74.2z"/>
		<path d="M186.3,75.7c-0.8,1.2-1.7,2.1-2.8,2.8c-1,0.7-1.9,1.1-2.7,1.1c-0.6,0-1.2-0.2-1.6-0.5c-0.4-0.3-0.6-0.7-0.6-1.2
			c0-0.6,0.3-1.8,0.9-3.5c0.2-0.5,0.3-0.8,0.3-0.9s-0.1-0.3-0.2-0.4l1.2,0c0.5,0,0.8,0.1,0.8,0.4c0,0.2-0.2,0.7-0.5,1.5
			c-0.1,0.2-0.2,0.4-0.2,0.5l-0.1,0.4c-0.3,0.7-0.4,1.3-0.4,1.7c0,0.6,0.3,0.9,0.9,0.9c1,0,2.3-0.8,3.8-2.5c1.3-1.4,1.9-2.3,1.9-2.9
			c0-0.1,0-0.2-0.1-0.2c0.5-0.1,0.9-0.1,1.2-0.1c0.5,0,0.8,0.1,0.8,0.3c0,0.1,0,0.1-0.1,0.2c0,0.1-0.1,0.2-0.2,0.4
			c0,0-0.1,0.2-0.2,0.5c-0.1,0.2-0.1,0.4-0.2,0.5l-0.1,0.3c-0.2,0.7-0.3,1.3-0.3,1.9c0,0.9,0.3,1.3,0.9,1.3c1.4,0,3.2-1.3,5.3-4
			l0.8,0.3c-2.4,3.2-4.7,4.8-6.7,4.8c-1.4,0-2-0.8-2-2.4C186.3,76.5,186.3,76.1,186.3,75.7z"/>
		<path d="M200.1,75.9c-0.9,1.1-1.9,2-2.9,2.7c-1,0.7-1.9,1-2.7,1c-0.6,0-1.1-0.2-1.5-0.6c-0.4-0.4-0.6-0.9-0.6-1.5
			c0-1.3,0.6-2.4,1.7-3.4c1.1-1,2.4-1.4,3.9-1.4c0.9,0,1.9,0.2,2.9,0.6l1-3.3c-0.5,0.1-1,0.1-1.3,0.1c-0.5,0-0.9-0.1-1.2-0.3
			c-0.2-0.2-0.4-0.5-0.6-0.9c0.4,0.2,1.1,0.3,2,0.3c1.1,0,2.2-0.1,3.2-0.4l-1.9,6.6c-0.2,0.7-0.3,1.4-0.3,1.9c0,0.7,0.3,1,0.9,1
			c0.6,0,1.5-0.5,2.9-1.4c1.3-0.9,2.4-1.9,3.3-2.9l0.7,0.3c-1.1,1.3-2.4,2.5-4,3.5c-1.6,1-2.9,1.6-3.8,1.6c-1.2,0-1.8-0.7-1.8-2
			C199.9,77,199.9,76.5,200.1,75.9z M200.6,74.2c-1.2-0.6-2.3-0.8-3.1-0.8c-0.9,0-1.7,0.4-2.3,1.1c-0.7,0.7-1,1.6-1,2.6
			c0,0.8,0.4,1.2,1.2,1.2c0.8,0,2.5-1.3,4.9-3.8C200.3,74.5,200.4,74.4,200.6,74.2z"/>
	</g>
</g>
</svg>
