<?xml version="1.0" encoding="utf-8"?>
<!-- Generator: Adobe Illustrator 18.0.0, SVG Export Plug-In . SVG Version: 6.00 Build 0)  -->
<svg version="1.2" baseProfile="tiny" id="Layer_1" xmlns="http://www.w3.org/2000/svg" xmlns:xlink="http://www.w3.org/1999/xlink"
	 x="0px" y="0px" viewBox="0 0 250 100" overflow="inherit" xml:space="preserve">
<g>
	<g>
		<path fill="#00B7F7" d="M46.1,36.5L34.8,63.1c-1,2.4-1.6,4-1.6,4.7c0,0.7,0.4,1.5,1.1,2.3c-5.6,1.3-10.8,2-15.5,2
			c-2.9,0-4.4-0.5-4.4-1.6c0-0.6,0.5-2.1,1.6-4.8l12.4-29.1l-1.3,0c-5,0-10.4,0.6-16.2,1.7c2.7-2.7,5.1-4.5,7.2-5.3
			c2.1-0.8,5.4-1.2,10-1.2l2.3,0l9.9-23l-1.8,0c-12.2,0-21.8,1.6-29,4.6c2.1-4,5.9-6.8,11.2-8.1c3.8-1,15.6-1.5,35.3-1.5l22-0.1
			c16.4,0,30-0.7,40.9-2.1c-3.4,2.8-7,4.7-10.8,5.6c-3.8,0.9-9.5,1.4-17.4,1.4l-7.4,0L57.9,8.8l-9.8,23l18.1,0
			c11.2,0,20.5-0.7,27.8-2c-2.7,2.9-5.7,4.7-9.2,5.5c-3.5,0.8-10.3,1.2-20.5,1.2L46.1,36.5z"/>
		<path fill="#10D600" d="M107.6,24.3c-1.4-1.3-2-2.7-2-4.1c0-4.6,7.6-8.7,22.9-12.4c15.3-3.7,32.7-5.5,52.1-5.6
			c20.4-0.1,36.5,2,48.3,6.1c11.8,4.1,17.7,9.8,17.8,17c0.1,9.6-9,18.1-27.2,25.4c-9.6,3.9-21.7,7.1-36.1,9.6
			c-14.5,2.5-28.3,3.8-41.5,3.8c-12.7,0-19.1-2.1-19.1-6.5c0-1.6,1-4.9,3.2-9.8l10.7-25.1c0.9-2.1,1.4-3.7,1.4-4.6
			c0-0.9-0.7-1.7-2-2.4c7.4-1.3,12.6-1.9,15.5-2c3.5,0,5.2,0.9,5.2,2.7c0,0.4-0.9,2.7-2.6,6.7l-9,21c-2.2,5.3-3.4,8.7-3.4,10.1
			c0,1.5,1.2,2.6,3.4,3.1c2.3,0.5,6.5,0.8,12.8,0.8c20.3-0.1,37.2-2.9,50.8-8.6c13.6-5.7,20.4-12.7,20.3-21.1
			c-0.1-6.5-5.1-11.6-15-15.5c-10-3.9-23.2-5.8-39.7-5.7c-13.4,0-26,1.6-37.6,4.5C125.1,14.7,115.4,18.9,107.6,24.3z"/>
	</g>
	<g>
		<path d="M6,87.2H5.7c-1.2,0-2.3,0.2-3.2,0.7c0.2-0.8,0.5-1.3,0.9-1.5s1.2-0.3,2.4-0.3h0.5l0.4-1.5c0.6-2.1,1.4-3.6,2.7-4.5
			c1.5-1.1,3.2-1.7,5-1.7c0.7,0,1.3,0.1,1.8,0.4c0.5,0.2,0.8,0.6,0.8,0.9c0,0.4-0.5,0.8-1.6,1.2c-0.3-1-1-1.4-2-1.4
			c-1.9,0-3.2,1.5-4,4.6l-0.5,2.1h4.3c2,0,3.4-0.1,4.4-0.2c-0.4,0.7-0.9,1.1-1.4,1.2c-0.5,0.1-1.8,0.2-3.9,0.2H8.4l-2.1,8
			C6.1,96,6,96.7,6,97.3c0,0.4,0.1,0.7,0.3,1c-0.8,0.2-1.5,0.3-1.9,0.3c-0.7,0-1-0.3-1-0.9c0-0.5,0.1-1.2,0.4-2.2L6,87.2z"/>
		<path d="M16.4,94.6c-0.6,0.2-1,0.3-1.4,0.3c-0.9,0-1.3-0.3-1.3-0.8c0-0.3,0.1-1,0.4-2.1l0.6-2.3c0.4-1.4,0.6-2.4,0.6-3.1
			c0-0.4-0.1-0.7-0.4-0.9c0.9-0.2,1.6-0.3,2.1-0.3c0.6,0,0.9,0.3,0.9,0.8c0,0.3-0.2,1.2-0.6,2.7l-0.7,2.7c1.6-2.3,3.1-4.1,4.7-5.3
			c1.6-1.3,3-1.9,4.3-1.9c0.5,0,0.8,0.1,1.2,0.3c0.3,0.2,0.5,0.4,0.5,0.7c0,0.4-0.6,1-1.9,1.7c-0.3-0.5-0.8-0.7-1.3-0.7
			c-1.1,0-2.4,0.8-4,2.5c-1,1-1.9,2.1-2.6,3.2c-0.7,1.1-1.1,1.9-1.1,2.4L16.4,94.6z"/>
		<path d="M29.7,90.8c0,1.8,1,2.7,3.1,2.7c1.8,0,3.8-0.6,5.9-1.9c2.2-1.3,4.1-3,5.8-5l1.1,0.4c-1.6,2.3-3.7,4.2-6.3,5.7
			c-2.6,1.5-5.1,2.2-7.4,2.2c-1.5,0-2.7-0.4-3.5-1.1s-1.3-1.7-1.3-3c0-1.8,0.8-3.4,2.4-4.6c1.6-1.3,3.5-1.9,5.7-1.9
			c1.1,0,1.9,0.2,2.6,0.6c0.6,0.4,1,0.9,1,1.6c0,1.1-0.9,2.1-2.7,3C34,90.4,32,90.8,29.7,90.8z M29.8,89.9c1.7-0.1,3.2-0.4,4.5-1.1
			s1.9-1.5,1.9-2.3c0-0.8-0.5-1.2-1.4-1.2c-1.1,0-2.2,0.5-3.1,1.4C30.6,87.5,30,88.6,29.8,89.9z"/>
		<path d="M44.6,90.8c0,1.8,1,2.7,3.1,2.7c1.8,0,3.8-0.6,5.9-1.9c2.2-1.3,4.1-3,5.8-5l1.1,0.4c-1.6,2.3-3.7,4.2-6.3,5.7
			c-2.6,1.5-5.1,2.2-7.4,2.2c-1.5,0-2.7-0.4-3.5-1.1c-0.9-0.7-1.3-1.7-1.3-3c0-1.8,0.8-3.4,2.4-4.6c1.6-1.3,3.5-1.9,5.7-1.9
			c1.1,0,1.9,0.2,2.6,0.6c0.6,0.4,1,0.9,1,1.6c0,1.1-0.9,2.1-2.7,3C49,90.4,46.9,90.8,44.6,90.8z M44.7,89.9
			c1.7-0.1,3.2-0.4,4.5-1.1s1.9-1.5,1.9-2.3c0-0.8-0.5-1.2-1.4-1.2c-1.1,0-2.2,0.5-3.1,1.4C45.5,87.5,44.9,88.6,44.7,89.9z"/>
		<path d="M70.8,87.1c-1.7,2.4-3.4,4.4-5.2,5.8c-1.7,1.4-3.3,2.1-4.6,2.1c-1,0-1.8-0.3-2.4-0.8s-0.9-1.3-0.9-2.2
			c0-0.5,0.1-1.2,0.4-2.2l2.5-9.4c-0.3,0-0.6,0.1-0.8,0.1c-1.9,0-2.9-0.6-2.9-1.8v-0.2c1,0.4,2.1,0.6,3.4,0.6s2.3-0.2,3.3-0.7
			l-2.9,11.2c-0.3,1-0.4,1.7-0.4,2.1c0,1.1,0.5,1.6,1.5,1.6c1,0,2-0.4,3-1.3c1-0.8,2.7-2.6,5-5.4L70.8,87.1z"/>
		<path d="M78,89c-1.1,1.7-2.4,3.1-3.9,4.2c-1.6,1.2-2.9,1.7-4.1,1.7c-0.9,0-1.6-0.3-2.1-0.9c-0.5-0.6-0.8-1.4-0.8-2.4
			c0-2,0.8-3.7,2.4-5.2c1.6-1.5,3.4-2.2,5.5-2.2c1.3,0,2.6,0.3,4.1,0.9c0.2-0.6,1.1-0.9,2.6-0.9c0.1,0,0.3,0,0.5,0
			c-0.5,0.5-0.8,1.3-1.1,2.2l-0.2,0.8c-0.2,0.9-0.4,1.9-0.4,3.1c0,1.4,0.4,2,1.3,2c0.9,0,2.1-0.6,3.7-1.7c1.6-1.1,3.1-2.6,4.6-4.3
			l1,0.5c-1.5,2.1-3.3,3.8-5.3,5.1c-2,1.4-3.7,2.1-5.1,2.1c-1.8,0-2.7-1.1-2.7-3.4C77.9,90.4,78,89.8,78,89z M78.6,86.7
			c-1.7-0.9-3.2-1.3-4.4-1.3c-1.3,0-2.3,0.6-3.3,1.7s-1.4,2.5-1.4,4.1c0,1.3,0.5,1.9,1.6,1.9c1.2,0,3.5-2,6.8-5.9
			C78.1,87.2,78.3,87,78.6,86.7z"/>
		<path d="M91.7,91.3c2.9-4.7,5.6-7,7.9-7c1.8,0,2.8,1.4,2.8,4.1l0,1.1c0,1.3,0.1,2.2,0.3,2.7s0.5,0.8,1,0.8c0.7,0,1.5-0.4,2.4-1.3
			s2.4-2.6,4.4-5.2l1,0.5c-1.8,2.6-3.5,4.5-4.9,5.8c-1.4,1.3-2.7,1.9-3.9,1.9c-1.1,0-1.8-0.4-2.2-1.2c-0.4-0.8-0.6-2.1-0.6-4l0-0.8
			c0-1-0.1-1.7-0.3-2.2c-0.2-0.4-0.5-0.6-0.9-0.6c-1.1,0-2.9,1.6-5.3,4.9c-0.6,0.8-1,1.3-1.2,1.6c-0.6,0.8-1,1.4-1,1.8
			c0,0.1,0.1,0.3,0.2,0.4c-0.5,0.1-0.9,0.2-1.2,0.2c-0.8,0-1.3-0.3-1.3-1c0-0.2,0.1-1.1,0.3-2.7l0.3-2c0.1-0.9,0.2-1.5,0.2-2
			c0-0.7-0.2-1.2-0.6-1.6c0.2,0,0.5-0.1,0.9-0.2c0.5-0.1,0.9-0.2,1.2-0.2c0.6,0,1,0.4,1,1.1c0,0.4-0.1,1-0.2,1.9
			c0,0.2,0,0.4-0.1,0.6L91.7,91.3z"/>
		<path d="M126.1,87c-2,2.5-4.1,4.5-6.4,6c-2.2,1.5-4.3,2.2-6.3,2.2c-1.6,0-2.9-0.4-3.9-1.2c-1-0.8-1.5-1.9-1.5-3.2
			c0-1.7,0.9-3.2,2.6-4.5c1.7-1.3,3.7-1.9,6.1-1.9c0.9,0,1.7,0.1,2.3,0.4s0.9,0.6,0.9,1c0,0.7-0.8,1.2-2.3,1.5
			c0.1-0.1,0.1-0.3,0.1-0.4c0-1-0.7-1.5-2.1-1.5c-1.2,0-2.4,0.5-3.4,1.6c-1,1-1.6,2.2-1.6,3.4c0,1,0.3,1.8,1,2.5s1.6,0.9,2.7,0.9
			c3.1,0,6.6-2.4,10.7-7.1L126.1,87z"/>
		<path d="M125.2,90.8c0,1.8,1,2.7,3.1,2.7c1.8,0,3.8-0.6,5.9-1.9c2.2-1.3,4.1-3,5.8-5L141,87c-1.6,2.3-3.7,4.2-6.3,5.7
			c-2.6,1.5-5.1,2.2-7.4,2.2c-1.5,0-2.7-0.4-3.5-1.1c-0.9-0.7-1.3-1.7-1.3-3c0-1.8,0.8-3.4,2.4-4.6c1.6-1.3,3.5-1.9,5.7-1.9
			c1.1,0,1.9,0.2,2.6,0.6c0.6,0.4,1,0.9,1,1.6c0,1.1-0.9,2.1-2.7,3C129.6,90.4,127.5,90.8,125.2,90.8z M125.3,89.9
			c1.7-0.1,3.2-0.4,4.5-1.1c1.2-0.7,1.9-1.5,1.9-2.3c0-0.8-0.5-1.2-1.4-1.2c-1.1,0-2.2,0.5-3.1,1.4
			C126.1,87.5,125.5,88.6,125.3,89.9z"/>
		<path d="M140.6,94.6c-0.6,0.2-1,0.3-1.4,0.3c-0.9,0-1.3-0.3-1.3-0.8c0-0.3,0.1-1,0.4-2.1l0.6-2.3c0.4-1.4,0.6-2.4,0.6-3.1
			c0-0.4-0.1-0.7-0.4-0.9c0.9-0.2,1.6-0.3,2.1-0.3c0.6,0,0.9,0.3,0.9,0.8c0,0.3-0.2,1.2-0.6,2.7l-0.7,2.7c1.6-2.3,3.1-4.1,4.7-5.3
			c1.6-1.3,3-1.9,4.3-1.9c0.5,0,0.8,0.1,1.2,0.3c0.3,0.2,0.5,0.4,0.5,0.7c0,0.4-0.6,1-1.9,1.7c-0.3-0.5-0.8-0.7-1.3-0.7
			c-1.1,0-2.4,0.8-4,2.5c-1,1-1.9,2.1-2.6,3.2c-0.7,1.1-1.1,1.9-1.1,2.4L140.6,94.6z"/>
		<path d="M170.5,89.2c-1.3,1.8-2.7,3.1-4.1,4.2c-1.4,1-2.7,1.5-3.8,1.5c-0.9,0-1.6-0.3-2.1-0.9c-0.5-0.6-0.8-1.4-0.8-2.3
			c0-2,0.8-3.7,2.3-5.2c1.6-1.5,3.4-2.2,5.4-2.2c1.2,0,2.6,0.3,4,0.9l1.3-5c-0.7,0.1-1.3,0.2-1.8,0.2c-0.7,0-1.3-0.1-1.6-0.4
			c-0.3-0.3-0.6-0.7-0.8-1.5c0.6,0.3,1.5,0.5,2.8,0.5c1.5,0,3-0.2,4.4-0.6l-2.7,10.2c-0.3,1.1-0.5,2.1-0.5,2.9
			c0,1.1,0.4,1.6,1.2,1.6c0.8,0,2.1-0.7,4-2.1s3.4-2.9,4.6-4.4l1,0.5c-1.5,2-3.3,3.8-5.5,5.5c-2.2,1.6-4,2.4-5.3,2.4
			c-1.7,0-2.5-1-2.5-3C170.2,91.1,170.3,90.2,170.5,89.2z M171.2,86.7c-1.7-0.9-3.2-1.3-4.3-1.3c-1.2,0-2.3,0.6-3.2,1.7
			s-1.4,2.5-1.4,4.1c0,1.3,0.5,1.9,1.6,1.9c1.2,0,3.4-2,6.8-5.9C170.8,87.2,170.9,87,171.2,86.7z"/>
		<path d="M190.8,89c-1.1,1.7-2.4,3.1-3.9,4.2c-1.6,1.2-2.9,1.7-4.1,1.7c-0.9,0-1.6-0.3-2.1-0.9c-0.5-0.6-0.8-1.4-0.8-2.4
			c0-2,0.8-3.7,2.4-5.2c1.6-1.5,3.4-2.2,5.5-2.2c1.3,0,2.6,0.3,4.1,0.9c0.2-0.6,1.1-0.9,2.6-0.9c0.1,0,0.3,0,0.5,0
			c-0.5,0.5-0.8,1.3-1.1,2.2l-0.2,0.8c-0.2,0.9-0.4,1.9-0.4,3.1c0,1.4,0.4,2,1.3,2c0.9,0,2.1-0.6,3.7-1.7s3.1-2.6,4.6-4.3l1,0.5
			c-1.5,2.1-3.3,3.8-5.3,5.1c-2,1.4-3.7,2.1-5.1,2.1c-1.8,0-2.7-1.1-2.7-3.4C190.7,90.4,190.7,89.8,190.8,89z M191.4,86.7
			c-1.7-0.9-3.2-1.3-4.4-1.3c-1.3,0-2.3,0.6-3.3,1.7s-1.4,2.5-1.4,4.1c0,1.3,0.5,1.9,1.6,1.9c1.2,0,3.5-2,6.8-5.9
			C190.9,87.2,191.1,87,191.4,86.7z"/>
		<path d="M211.6,88.9c-1.1,1.8-2.4,3.2-3.8,4.3c-1.4,1.1-2.7,1.7-3.8,1.7c-0.9,0-1.6-0.2-2.2-0.7c-0.6-0.5-0.8-1.1-0.8-1.9
			c0-1,0.4-2.8,1.3-5.4c0.2-0.7,0.4-1.2,0.4-1.3s-0.1-0.4-0.2-0.6l1.7,0c0.7,0,1.1,0.2,1.1,0.6c0,0.3-0.2,1-0.7,2.3
			c-0.1,0.4-0.2,0.6-0.3,0.8l-0.2,0.6c-0.4,1.1-0.5,2-0.5,2.6c0,0.9,0.4,1.4,1.3,1.4c1.4,0,3.1-1.3,5.3-3.9c1.7-2.1,2.6-3.6,2.6-4.5
			c0-0.1,0-0.2-0.1-0.4c0.7-0.1,1.3-0.2,1.7-0.2c0.7,0,1.1,0.2,1.1,0.5c0,0.1,0,0.2-0.1,0.4c0,0.1-0.1,0.3-0.2,0.7
			c0,0.1-0.1,0.3-0.2,0.8c-0.1,0.3-0.2,0.5-0.2,0.7l-0.1,0.4c-0.3,1-0.4,2-0.4,2.9c0,1.4,0.4,2.1,1.3,2.1c1.9,0,4.4-2.1,7.4-6.2
			l1,0.5c-3.4,4.9-6.5,7.4-9.3,7.4c-1.9,0-2.9-1.2-2.9-3.7C211.5,90.2,211.5,89.6,211.6,88.9z"/>
		<path d="M230.7,89.2c-1.3,1.8-2.7,3.1-4.1,4.2c-1.4,1-2.7,1.5-3.8,1.5c-0.9,0-1.6-0.3-2.1-0.9c-0.5-0.6-0.8-1.4-0.8-2.3
			c0-2,0.8-3.7,2.3-5.2c1.6-1.5,3.4-2.2,5.4-2.2c1.2,0,2.6,0.3,4,0.9l1.3-5c-0.7,0.1-1.3,0.2-1.8,0.2c-0.7,0-1.3-0.1-1.6-0.4
			c-0.3-0.3-0.6-0.7-0.8-1.5c0.6,0.3,1.5,0.5,2.8,0.5c1.5,0,3-0.2,4.4-0.6l-2.7,10.2c-0.3,1.1-0.5,2.1-0.5,2.9
			c0,1.1,0.4,1.6,1.2,1.6c0.8,0,2.1-0.7,4-2.1c1.9-1.4,3.4-2.9,4.6-4.4l1,0.5c-1.5,2-3.3,3.8-5.5,5.5c-2.2,1.6-4,2.4-5.3,2.4
			c-1.7,0-2.5-1-2.5-3C230.4,91.1,230.5,90.2,230.7,89.2z M231.4,86.7c-1.7-0.9-3.2-1.3-4.3-1.3c-1.2,0-2.3,0.6-3.2,1.7
			s-1.4,2.5-1.4,4.1c0,1.3,0.5,1.9,1.6,1.9c1.2,0,3.4-2,6.8-5.9C231,87.2,231.1,87,231.4,86.7z"/>
	</g>
</g>
</svg>
