<?xml version="1.0" encoding="utf-8"?>
<!-- Generator: Adobe Illustrator 18.0.0, SVG Export Plug-In . SVG Version: 6.00 Build 0)  -->
<svg version="1.2" baseProfile="tiny" id="Layer_1" xmlns="http://www.w3.org/2000/svg" xmlns:xlink="http://www.w3.org/1999/xlink"
	 x="0px" y="0px" viewBox="0 0 960 560" overflow="inherit" xml:space="preserve">
<g>
	<path fill="#00B7F7" d="M318.8,255.7l-21.3,88.2c-2,8.1-2.9,13.3-2.9,15.7c0,2.4,0.7,4.9,2.1,7.6c-10.6,4.4-20.3,6.6-29.1,6.6
		c-5.5,0-8.2-1.7-8.2-5.3c0-1.9,1-7.1,3.1-15.8l23.4-96.9l-2.4,0c-9.5,0-19.6,1.9-30.5,5.6c5.1-9,9.6-14.9,13.6-17.5
		c3.9-2.6,10.2-3.9,18.8-4l4.3,0l18.6-76.4l-3.5,0c-22.9,0.1-41.1,5.2-54.6,15.4c4-13.5,11.1-22.5,21.2-27c7.1-3.2,29.3-4.9,66.5-5
		l41.4-0.2c30.9-0.1,56.6-2.5,77-7c-6.5,9.3-13.2,15.5-20.3,18.7c-7.1,3.1-18,4.7-32.7,4.8l-13.9-0.1l-48.2,0.2l-18.4,76.4l34-0.2
		c21.1-0.1,38.5-2.3,52.3-6.7c-5,9.6-10.8,15.8-17.3,18.4c-6.6,2.7-19.4,4-38.7,4.1L318.8,255.7z"/>
	<path fill="#10D600" d="M434.6,214.9c-2.5-4.4-3.8-9-3.8-13.6c-0.1-15.3,14.3-29.1,43.1-41.3c28.8-12.2,61.5-18.5,98.1-18.6
		c38.5-0.2,68.8,6.6,90.9,20.2c22.2,13.7,33.3,32.5,33.4,56.5c0.1,31.9-16.9,60.1-51.1,84.5c-18.1,12.9-40.8,23.5-68,31.8
		c-27.2,8.3-53.3,12.5-78.2,12.6c-24,0.1-36-7.1-36-21.6c0-5.3,2-16.2,6-32.7l20.1-83.4c1.8-7.2,2.6-12.3,2.6-15.4
		c0-3-1.3-5.7-3.8-8.1c14-4.3,23.7-6.5,29.1-6.5c6.5,0,9.8,3,9.8,9.1c0,1.4-1.6,8.9-4.9,22.3L505,280.5c-4.2,17.8-6.3,29-6.3,33.6
		c0,5.1,2.2,8.6,6.4,10.4c4.3,1.8,12.3,2.7,24,2.6c38.1-0.2,70-9.7,95.7-28.6c25.6-18.9,38.4-42.3,38.3-70.1
		c-0.1-21.5-9.6-38.7-28.3-51.5c-18.7-12.8-43.7-19.2-74.8-19.1c-25.3,0.1-48.9,5.2-70.8,15.1C467.5,182.9,449.2,196.8,434.6,214.9z
		"/>
</g>
<g>
	<path d="M243.2,424.3h-0.5c-2.3,0-4.4,0.8-6.1,2.3c0.4-2.7,0.9-4.3,1.7-5.1s2.3-1.1,4.6-1.1h0.9l0.8-5.1c1-7,2.7-12,5-15.1
		c2.8-3.8,6-5.7,9.4-5.7c1.3,0,2.5,0.4,3.5,1.2c1,0.8,1.5,1.8,1.5,3c0,1.2-1,2.6-3,4.1c-0.6-3.2-1.8-4.8-3.8-4.8
		c-3.5,0-6.1,5.1-7.6,15.4l-1,6.9h8.2c3.7,0,6.5-0.3,8.2-0.8c-0.8,2.2-1.6,3.5-2.6,4c-1,0.4-3.4,0.7-7.4,0.7h-7l-4,26.7
		c-0.4,2.6-0.6,4.8-0.6,6.7c0,1.2,0.2,2.3,0.6,3.3c-1.6,0.7-2.8,1-3.6,1c-1.3,0-1.9-1-1.9-2.9c0-1.5,0.3-4,0.8-7.5L243.2,424.3z"/>
	<path d="M262.8,448.9c-1.1,0.7-1.9,1-2.6,1c-1.6,0-2.4-0.9-2.4-2.8c0-1,0.3-3.3,0.8-7.1l1.2-7.7c0.7-4.6,1.1-8,1.1-10.2
		c0-1.2-0.3-2.2-0.8-3c1.6-0.7,3-1.1,4-1.1c1.1,0,1.6,0.9,1.6,2.8c0,1.1-0.4,4.1-1.2,9l-1.3,9.1c3-7.6,5.9-13.5,8.9-17.7
		c3-4.2,5.7-6.3,8.1-6.3c0.9,0,1.6,0.3,2.2,1c0.6,0.7,0.9,1.4,0.9,2.4c0,1.5-1.2,3.4-3.6,5.8c-0.6-1.6-1.4-2.5-2.5-2.5
		c-2,0-4.5,2.8-7.6,8.4c-1.9,3.5-3.6,7.1-5,10.8c-1.4,3.7-2.1,6.3-2.1,7.9L262.8,448.9z"/>
	<path d="M287.8,436.1c0,6.1,1.9,9.1,5.8,9.1c3.4,0,7.1-2.1,11.1-6.4c4-4.2,7.7-9.8,10.9-16.8l2,1.5c-3.1,7.6-7,13.9-11.9,18.8
		c-4.9,5-9.5,7.5-13.9,7.5c-2.8,0-5-1.2-6.7-3.6c-1.6-2.4-2.5-5.7-2.5-9.9c0-6,1.5-11.2,4.4-15.4c3-4.3,6.5-6.4,10.7-6.4
		c2,0,3.6,0.7,4.8,2c1.2,1.3,1.8,3.2,1.8,5.4c0,3.7-1.7,7-5.1,9.9C296,434.7,292.2,436.1,287.8,436.1z M288,433.1
		c3.3-0.2,6.1-1.5,8.4-3.7c2.3-2.3,3.5-4.9,3.5-7.8c0-2.6-0.9-4-2.7-4c-2.1,0-4.1,1.5-5.9,4.5C289.5,425.2,288.4,428.8,288,433.1z"
		/>
	<path d="M315.9,436.1c0,6.1,1.9,9.1,5.8,9.1c3.4,0,7.1-2.1,11.1-6.4c4-4.2,7.7-9.8,10.9-16.8l2,1.5c-3.1,7.6-7,13.9-11.9,18.8
		c-4.9,5-9.5,7.5-13.9,7.5c-2.8,0-5-1.2-6.7-3.6c-1.6-2.4-2.5-5.7-2.5-9.9c0-6,1.5-11.2,4.4-15.4c3-4.3,6.5-6.4,10.7-6.4
		c2,0,3.6,0.7,4.8,2c1.2,1.3,1.8,3.2,1.8,5.4c0,3.7-1.7,7-5.1,9.9C324.1,434.7,320.3,436.1,315.9,436.1z M316.1,433.1
		c3.3-0.2,6.1-1.5,8.4-3.7c2.3-2.3,3.5-4.9,3.5-7.8c0-2.6-0.9-4-2.7-4c-2.1,0-4.1,1.5-5.9,4.5C317.6,425.2,316.5,428.8,316.1,433.1z
		"/>
	<path d="M365.2,423.7c-3.2,8.1-6.5,14.5-9.8,19.2s-6.2,7-8.7,7c-1.8,0-3.3-0.9-4.4-2.8c-1.1-1.9-1.7-4.3-1.7-7.4
		c0-1.7,0.2-4.1,0.7-7.2l4.7-31.2c-0.6,0.1-1.1,0.2-1.6,0.2c-3.6,0-5.4-2-5.4-6v-0.7c1.9,1.4,4,2.1,6.4,2.1s4.4-0.8,6.2-2.3
		l-5.4,37.4c-0.5,3.4-0.7,5.7-0.7,6.9c0,3.5,1,5.3,2.9,5.3c1.9,0,3.8-1.4,5.7-4.2c1.9-2.8,5-8.8,9.3-18L365.2,423.7z"/>
	<path d="M378.9,430.1c-2,5.5-4.5,10.2-7.4,14c-2.9,3.8-5.5,5.8-7.7,5.8c-1.7,0-3-1-4-2.9c-1-2-1.5-4.6-1.5-7.8
		c0-6.5,1.5-12.2,4.4-17.1c3-4.9,6.4-7.4,10.3-7.4c2.4,0,4.9,1,7.7,2.9c0.4-1.9,2.1-2.9,5-2.9c0.2,0,0.5,0,0.9,0
		c-0.9,1.8-1.6,4.3-2,7.4l-0.4,2.6c-0.5,2.9-0.7,6.4-0.7,10.3c0,4.5,0.8,6.8,2.4,6.8c1.7,0,4-1.9,6.9-5.6c2.9-3.7,5.8-8.5,8.6-14.3
		l1.8,1.7c-2.9,6.8-6.2,12.5-9.9,17.1c-3.7,4.6-6.9,6.9-9.6,6.9c-3.4,0-5.1-3.7-5.1-11.2C378.7,434.8,378.8,432.7,378.9,430.1z
		 M380,422.6c-3.3-2.8-6-4.3-8.2-4.3c-2.4,0-4.4,1.9-6.1,5.7c-1.7,3.8-2.6,8.3-2.6,13.5c0,4.2,1,6.3,3.1,6.3
		c2.2,0,6.5-6.5,12.8-19.5C379.1,424.2,379.4,423.6,380,422.6z"/>
	<path d="M404.5,437.9c5.5-15.6,10.5-23.4,15-23.4c3.5,0,5.2,4.6,5.2,13.7l0,3.8c0,4.4,0.2,7.4,0.5,9s0.9,2.5,1.8,2.5
		c1.3,0,2.9-1.4,4.6-4.3c1.7-2.8,4.5-8.6,8.4-17.1l2,1.5c-3.4,8.6-6.5,15-9.2,19.2c-2.7,4.2-5.2,6.3-7.3,6.3c-2,0-3.4-1.3-4.2-3.8
		c-0.8-2.6-1.2-7-1.2-13.2l0-2.7c0-3.4-0.2-5.8-0.5-7.2c-0.3-1.4-0.9-2.1-1.7-2.1c-2.1,0-5.4,5.5-10,16.4c-1.1,2.7-1.9,4.4-2.2,5.2
		c-1.2,2.8-1.8,4.8-1.8,6c0,0.5,0.1,1,0.3,1.4c-0.9,0.5-1.7,0.7-2.3,0.7c-1.6,0-2.4-1.2-2.4-3.5c0-0.7,0.2-3.6,0.6-9l0.5-6.7
		c0.2-2.9,0.4-5.1,0.4-6.7c0-2.2-0.4-3.9-1.1-5.2c0.3-0.1,0.9-0.4,1.6-0.7c1-0.5,1.7-0.7,2.3-0.7c1.2,0,1.8,1.2,1.8,3.5
		c0,1.2-0.1,3.4-0.4,6.4c0,0.7-0.1,1.3-0.1,1.9L404.5,437.9z"/>
	<path d="M469.4,423.7c-3.8,8.4-7.8,15-12,19.9c-4.2,4.8-8.2,7.3-11.8,7.3c-3,0-5.5-1.4-7.3-4.1c-1.9-2.7-2.8-6.3-2.8-10.7
		c0-5.8,1.6-10.8,4.9-15.1c3.2-4.3,7-6.4,11.4-6.4c1.8,0,3.2,0.5,4.3,1.4c1.1,0.9,1.7,2,1.7,3.4c0,2.3-1.5,4-4.4,5.1
		c0.2-0.5,0.2-1,0.2-1.4c0-3.4-1.3-5-4-5c-2.3,0-4.5,1.7-6.4,5.2c-2,3.5-2.9,7.2-2.9,11.3c0,3.3,0.7,6.1,2,8.2
		c1.3,2.1,3,3.2,5.1,3.2c5.8,0,12.5-7.9,20.2-23.7L469.4,423.7z"/>
	<path d="M467.7,436.1c0,6.1,1.9,9.1,5.8,9.1c3.4,0,7.1-2.1,11.1-6.4c4-4.2,7.7-9.8,10.9-16.8l2,1.5c-3.1,7.6-7,13.9-11.9,18.8
		c-4.9,5-9.5,7.5-13.9,7.5c-2.8,0-5-1.2-6.7-3.6s-2.5-5.7-2.5-9.9c0-6,1.5-11.2,4.4-15.4c3-4.3,6.5-6.4,10.7-6.4c2,0,3.6,0.7,4.8,2
		c1.2,1.3,1.8,3.2,1.8,5.4c0,3.7-1.7,7-5.1,9.9C475.9,434.7,472,436.1,467.7,436.1z M467.8,433.1c3.3-0.2,6.1-1.5,8.4-3.7
		c2.3-2.3,3.5-4.9,3.5-7.8c0-2.6-0.9-4-2.7-4c-2.1,0-4.1,1.5-5.9,4.5C469.4,425.2,468.3,428.8,467.8,433.1z"/>
	<path d="M496.7,448.9c-1.1,0.7-1.9,1-2.6,1c-1.6,0-2.4-0.9-2.4-2.8c0-1,0.3-3.3,0.8-7.1l1.2-7.7c0.7-4.6,1.1-8,1.1-10.2
		c0-1.2-0.3-2.2-0.8-3c1.6-0.7,3-1.1,4-1.1c1.1,0,1.6,0.9,1.6,2.8c0,1.1-0.4,4.1-1.2,9l-1.3,9.1c3-7.6,5.9-13.5,8.9-17.7
		c3-4.2,5.7-6.3,8.1-6.3c0.9,0,1.6,0.3,2.2,1c0.6,0.7,0.9,1.4,0.9,2.4c0,1.5-1.2,3.4-3.6,5.8c-0.6-1.6-1.4-2.5-2.5-2.5
		c-2,0-4.5,2.8-7.6,8.4c-1.9,3.5-3.6,7.1-5,10.8c-1.4,3.7-2.1,6.3-2.1,7.9L496.7,448.9z"/>
	<path d="M553,430.9c-2.4,5.8-5,10.4-7.7,13.9c-2.7,3.4-5,5.1-7.1,5.1c-1.7,0-3-1-4-2.9s-1.5-4.5-1.5-7.8c0-6.6,1.5-12.3,4.4-17.2
		c2.9-4.9,6.4-7.4,10.2-7.4c2.3,0,4.9,1,7.6,3l2.5-16.7c-1.4,0.4-2.5,0.6-3.4,0.6c-1.4,0-2.4-0.4-3-1.3c-0.6-0.9-1.2-2.5-1.5-4.9
		c1.1,1,2.9,1.5,5.2,1.5c2.9,0,5.7-0.7,8.4-2.1l-5.1,34.1c-0.6,3.8-0.9,7.1-0.9,9.7c0,3.6,0.8,5.3,2.3,5.3c1.5,0,4-2.3,7.5-7
		c3.5-4.7,6.4-9.5,8.7-14.6l1.9,1.6c-2.8,6.8-6.3,12.8-10.4,18.1c-4.2,5.3-7.5,8-10,8c-3.2,0-4.7-3.4-4.7-10.1
		C552.4,437,552.6,434,553,430.9z M554.3,422.6c-3.3-2.8-6-4.3-8.1-4.3c-2.3,0-4.4,1.9-6.1,5.7c-1.7,3.8-2.6,8.3-2.6,13.5
		c0,4.2,1,6.3,3.1,6.3c2.2,0,6.5-6.5,12.8-19.5C553.5,424.2,553.8,423.6,554.3,422.6z"/>
	<path d="M591.2,430.1c-2,5.5-4.5,10.2-7.4,14c-2.9,3.8-5.5,5.8-7.7,5.8c-1.7,0-3-1-4-2.9c-1-2-1.5-4.6-1.5-7.8
		c0-6.5,1.5-12.2,4.4-17.1c3-4.9,6.4-7.4,10.3-7.4c2.4,0,4.9,1,7.7,2.9c0.4-1.9,2.1-2.9,5-2.9c0.2,0,0.5,0,0.9,0
		c-0.9,1.8-1.6,4.3-2,7.4l-0.4,2.6c-0.5,2.9-0.7,6.4-0.7,10.3c0,4.5,0.8,6.8,2.4,6.8c1.7,0,4-1.9,6.9-5.6c2.9-3.7,5.8-8.5,8.6-14.3
		l1.8,1.7c-2.9,6.8-6.2,12.5-9.9,17.1c-3.7,4.6-6.9,6.9-9.6,6.9c-3.4,0-5.1-3.7-5.1-11.2C591,434.8,591.1,432.7,591.2,430.1z
		 M592.3,422.6c-3.3-2.8-6-4.3-8.2-4.3c-2.4,0-4.4,1.9-6.1,5.7s-2.6,8.3-2.6,13.5c0,4.2,1,6.3,3.1,6.3c2.2,0,6.5-6.5,12.8-19.5
		C591.4,424.2,591.7,423.6,592.3,422.6z"/>
	<path d="M630.3,429.9c-2.2,5.9-4.6,10.7-7.2,14.4s-5,5.5-7.2,5.5c-1.7,0-3.1-0.8-4.1-2.4c-1.1-1.6-1.6-3.7-1.6-6.2
		c0-3.3,0.8-9.3,2.5-18c0.5-2.4,0.7-3.9,0.7-4.5c0-0.6-0.1-1.3-0.4-2l3.2,0c1.4,0,2.1,0.7,2.1,2.1c0,0.9-0.5,3.4-1.4,7.7
		c-0.3,1.3-0.5,2.1-0.5,2.6L616,431c-0.7,3.8-1,6.7-1,8.7c0,3.1,0.8,4.6,2.4,4.6c2.6,0,5.9-4.3,9.9-12.8c3.3-7,4.9-11.9,4.9-14.9
		c0-0.4-0.1-0.8-0.3-1.2c1.3-0.5,2.4-0.7,3.3-0.7c1.4,0,2.1,0.6,2.1,1.7c0,0.3-0.1,0.7-0.2,1.2c-0.1,0.3-0.2,1.1-0.4,2.3
		c0,0.2-0.2,1.1-0.5,2.5c-0.2,1-0.4,1.8-0.4,2.4l-0.2,1.5c-0.5,3.4-0.8,6.6-0.8,9.6c0,4.6,0.8,6.8,2.5,6.8c3.7,0,8.3-6.8,13.9-20.5
		l2,1.5c-6.4,16.4-12.3,24.5-17.6,24.5c-3.6,0-5.4-4.1-5.4-12.3C630.1,434.2,630.2,432.3,630.3,429.9z"/>
	<path d="M666.4,430.9c-2.4,5.8-5,10.4-7.7,13.9c-2.7,3.4-5,5.1-7.1,5.1c-1.7,0-3-1-4-2.9s-1.5-4.5-1.5-7.8c0-6.6,1.5-12.3,4.4-17.2
		c2.9-4.9,6.4-7.4,10.2-7.4c2.3,0,4.9,1,7.6,3l2.5-16.7c-1.4,0.4-2.5,0.6-3.4,0.6c-1.4,0-2.4-0.4-3-1.3c-0.6-0.9-1.2-2.5-1.5-4.9
		c1.1,1,2.9,1.5,5.2,1.5c2.9,0,5.7-0.7,8.4-2.1l-5.1,34.1c-0.6,3.8-0.9,7.1-0.9,9.7c0,3.6,0.8,5.3,2.3,5.3c1.5,0,4-2.3,7.5-7
		c3.5-4.7,6.4-9.5,8.7-14.6l1.9,1.6c-2.8,6.8-6.3,12.8-10.4,18.1c-4.2,5.3-7.5,8-10,8c-3.2,0-4.7-3.4-4.7-10.1
		C665.8,437,666,434,666.4,430.9z M667.6,422.6c-3.3-2.8-6-4.3-8.1-4.3c-2.3,0-4.4,1.9-6.1,5.7c-1.7,3.8-2.6,8.3-2.6,13.5
		c0,4.2,1,6.3,3.1,6.3c2.2,0,6.5-6.5,12.8-19.5C666.9,424.2,667.2,423.6,667.6,422.6z"/>
</g>
</svg>
