<?xml version="1.0" encoding="utf-8"?>
<!-- Generator: Adobe Illustrator 18.0.0, SVG Export Plug-In . SVG Version: 6.00 Build 0)  -->
<svg version="1.2" baseProfile="tiny" id="Layer_1" xmlns="http://www.w3.org/2000/svg" xmlns:xlink="http://www.w3.org/1999/xlink"
	 x="0px" y="0px" viewBox="0 0 250 100" overflow="inherit" xml:space="preserve">
<g>
	<g>
		<path fill="#00B7F7" d="M54.2,37.3L43.9,59.6c-0.9,2-1.4,3.4-1.4,4c0,0.6,0.3,1.2,1,1.9c-5.1,1.1-9.8,1.7-14.1,1.7
			c-2.6,0-4-0.4-4-1.3c0-0.5,0.5-1.8,1.5-4l11.3-24.5l-1.1,0c-4.6,0-9.5,0.5-14.8,1.4c2.5-2.3,4.7-3.7,6.6-4.4c1.9-0.7,4.9-1,9.1-1
			l2.1,0l9-19.3l-1.7,0c-11.1,0-19.9,1.3-26.4,3.9c2-3.4,5.4-5.7,10.2-6.8c3.5-0.8,14.2-1.2,32.2-1.3l20.1,0c15,0,27.4-0.6,37.3-1.8
			c-3.1,2.3-6.4,3.9-9.8,4.7c-3.4,0.8-8.7,1.2-15.8,1.2l-6.7,0L65,14L56,33.3l16.5,0c10.2,0,18.7-0.6,25.3-1.7
			c-2.4,2.4-5.2,4-8.4,4.7c-3.2,0.7-9.4,1-18.7,1L54.2,37.3z"/>
		<path fill="#10D600" d="M110.3,27c-1.2-1.1-1.9-2.3-1.9-3.4c0-3.9,6.9-7.3,20.9-10.4c14-3.1,29.8-4.7,47.5-4.7
			c18.6,0,33.3,1.7,44,5.1C231.6,17,237,21.7,237,27.8c0.1,8-8.2,15.2-24.8,21.3c-8.8,3.3-19.7,5.9-32.9,8
			c-13.2,2.1-25.8,3.2-37.8,3.2c-11.6,0-17.4-1.8-17.4-5.5c0-1.3,1-4.1,2.9-8.2l9.7-21c0.8-1.8,1.3-3.1,1.3-3.9
			c0-0.8-0.6-1.4-1.8-2.1c6.8-1.1,11.5-1.6,14.1-1.6c3.2,0,4.7,0.8,4.7,2.3c0,0.4-0.8,2.2-2.4,5.6l-8.2,17.6c-2,4.5-3.1,7.3-3.1,8.5
			c0,1.3,1,2.2,3.1,2.6c2.1,0.5,5.9,0.7,11.6,0.7c18.5,0,33.9-2.5,46.3-7.2c12.4-4.8,18.6-10.7,18.5-17.7c-0.1-5.4-4.6-9.8-13.7-13
			c-9.1-3.2-21.1-4.8-36.2-4.8c-12.3,0-23.7,1.3-34.3,3.8C126.2,18.9,117.4,22.4,110.3,27z"/>
	</g>
	<g>
		<path d="M17.7,79.8h-0.2c-1.1,0-2.1,0.2-3,0.6c0.2-0.7,0.4-1.1,0.8-1.3s1.1-0.3,2.2-0.3h0.4l0.4-1.3c0.5-1.8,1.3-3,2.4-3.8
			c1.4-1,2.9-1.4,4.6-1.4c0.7,0,1.2,0.1,1.7,0.3c0.5,0.2,0.7,0.5,0.7,0.8c0,0.3-0.5,0.7-1.5,1c-0.3-0.8-0.9-1.2-1.9-1.2
			c-1.7,0-2.9,1.3-3.7,3.9l-0.5,1.7h4c1.8,0,3.1-0.1,4-0.2c-0.4,0.6-0.8,0.9-1.2,1c-0.5,0.1-1.7,0.2-3.6,0.2h-3.4L18,86.6
			c-0.2,0.6-0.3,1.2-0.3,1.7c0,0.3,0.1,0.6,0.3,0.8c-0.8,0.2-1.3,0.3-1.7,0.3c-0.6,0-0.9-0.2-0.9-0.7c0-0.4,0.1-1,0.4-1.9L17.7,79.8
			z"/>
		<path d="M27.1,86c-0.5,0.2-0.9,0.3-1.2,0.3c-0.8,0-1.2-0.2-1.2-0.7c0-0.2,0.1-0.8,0.4-1.8l0.6-2c0.3-1.2,0.5-2,0.5-2.6
			c0-0.3-0.1-0.6-0.4-0.8c0.8-0.2,1.4-0.3,1.9-0.3c0.5,0,0.8,0.2,0.8,0.7c0,0.3-0.2,1-0.6,2.3l-0.6,2.3c1.4-1.9,2.9-3.4,4.3-4.5
			c1.4-1.1,2.8-1.6,3.9-1.6c0.4,0,0.8,0.1,1.1,0.2c0.3,0.2,0.5,0.4,0.5,0.6c0,0.4-0.6,0.9-1.7,1.5c-0.3-0.4-0.7-0.6-1.2-0.6
			c-1,0-2.2,0.7-3.7,2.1c-0.9,0.9-1.7,1.8-2.4,2.7c-0.7,0.9-1,1.6-1,2L27.1,86z"/>
		<path d="M39.2,82.8c0,1.5,0.9,2.3,2.8,2.3c1.6,0,3.4-0.5,5.4-1.6c2-1.1,3.7-2.5,5.3-4.2l1,0.4c-1.5,1.9-3.4,3.5-5.8,4.8
			c-2.4,1.3-4.6,1.9-6.7,1.9c-1.4,0-2.4-0.3-3.2-0.9c-0.8-0.6-1.2-1.4-1.2-2.5c0-1.5,0.7-2.8,2.2-3.9c1.4-1.1,3.2-1.6,5.2-1.6
			c1,0,1.8,0.2,2.3,0.5s0.9,0.8,0.9,1.4c0,0.9-0.8,1.8-2.4,2.5C43.2,82.5,41.4,82.8,39.2,82.8z M39.3,82.1c1.6-0.1,2.9-0.4,4.1-0.9
			c1.1-0.6,1.7-1.2,1.7-2c0-0.7-0.4-1-1.3-1c-1,0-2,0.4-2.8,1.1C40.1,80.1,39.5,81,39.3,82.1z"/>
		<path d="M52.8,82.8c0,1.5,0.9,2.3,2.8,2.3c1.6,0,3.4-0.5,5.4-1.6c2-1.1,3.7-2.5,5.3-4.2l1,0.4c-1.5,1.9-3.4,3.5-5.8,4.8
			c-2.4,1.3-4.6,1.9-6.7,1.9c-1.4,0-2.4-0.3-3.2-0.9c-0.8-0.6-1.2-1.4-1.2-2.5c0-1.5,0.7-2.8,2.2-3.9c1.4-1.1,3.2-1.6,5.2-1.6
			c1,0,1.8,0.2,2.3,0.5c0.6,0.3,0.9,0.8,0.9,1.4c0,0.9-0.8,1.8-2.4,2.5C56.8,82.5,55,82.8,52.8,82.8z M52.9,82.1
			c1.6-0.1,2.9-0.4,4.1-0.9c1.1-0.6,1.7-1.2,1.7-2c0-0.7-0.4-1-1.3-1c-1,0-2,0.4-2.8,1.1C53.7,80.1,53.1,81,52.9,82.1z"/>
		<path d="M76.7,79.7c-1.6,2.1-3.1,3.7-4.7,4.8c-1.6,1.2-3,1.8-4.2,1.8c-0.9,0-1.6-0.2-2.1-0.7c-0.5-0.5-0.8-1.1-0.8-1.9
			c0-0.4,0.1-1,0.3-1.8l2.3-7.9c-0.3,0-0.6,0-0.8,0c-1.7,0-2.6-0.5-2.6-1.5v-0.2c0.9,0.4,1.9,0.5,3.1,0.5s2.1-0.2,3-0.6l-2.6,9.4
			c-0.2,0.8-0.4,1.4-0.4,1.8c0,0.9,0.5,1.3,1.4,1.3c0.9,0,1.8-0.4,2.7-1.1c0.9-0.7,2.4-2.2,4.5-4.5L76.7,79.7z"/>
		<path d="M83.3,81.3c-1,1.4-2.2,2.6-3.6,3.5c-1.4,1-2.7,1.5-3.7,1.5c-0.8,0-1.4-0.2-1.9-0.7c-0.5-0.5-0.7-1.2-0.7-2
			c0-1.6,0.7-3.1,2.2-4.3c1.4-1.2,3.1-1.9,5-1.9c1.1,0,2.4,0.2,3.7,0.7c0.2-0.5,1-0.7,2.4-0.7c0.1,0,0.2,0,0.4,0
			c-0.4,0.5-0.8,1.1-1,1.9l-0.2,0.7c-0.2,0.7-0.3,1.6-0.3,2.6c0,1.1,0.4,1.7,1.2,1.7c0.8,0,1.9-0.5,3.4-1.4c1.4-0.9,2.8-2.1,4.2-3.6
			l0.9,0.4c-1.4,1.7-3,3.2-4.8,4.3c-1.8,1.2-3.3,1.7-4.6,1.7c-1.6,0-2.5-0.9-2.5-2.8C83.3,82.5,83.3,82,83.3,81.3z M83.9,79.4
			c-1.6-0.7-2.9-1.1-4-1.1c-1.1,0-2.1,0.5-3,1.4c-0.8,1-1.3,2.1-1.3,3.4c0,1.1,0.5,1.6,1.5,1.6c1.1,0,3.2-1.6,6.2-4.9
			C83.4,79.8,83.6,79.7,83.9,79.4z"/>
		<path d="M95.8,83.3c2.7-3.9,5.1-5.9,7.2-5.9c1.7,0,2.5,1.2,2.5,3.5l0,0.9c0,1.1,0.1,1.9,0.2,2.3s0.5,0.6,0.9,0.6
			c0.7,0,1.4-0.4,2.2-1.1c0.8-0.7,2.2-2.2,4-4.3l1,0.4c-1.7,2.2-3.2,3.8-4.5,4.8c-1.3,1.1-2.5,1.6-3.5,1.6c-1,0-1.6-0.3-2-1
			c-0.4-0.6-0.6-1.8-0.6-3.3l0-0.7c0-0.9-0.1-1.5-0.2-1.8c-0.2-0.3-0.4-0.5-0.8-0.5c-1,0-2.6,1.4-4.8,4.1c-0.5,0.7-0.9,1.1-1.1,1.3
			c-0.6,0.7-0.9,1.2-0.9,1.5c0,0.1,0,0.2,0.1,0.4c-0.4,0.1-0.8,0.2-1.1,0.2c-0.8,0-1.1-0.3-1.1-0.9c0-0.2,0.1-0.9,0.3-2.3l0.2-1.7
			c0.1-0.7,0.2-1.3,0.2-1.7c0-0.6-0.2-1-0.5-1.3c0.2,0,0.4-0.1,0.8-0.2c0.5-0.1,0.8-0.2,1.1-0.2c0.6,0,0.9,0.3,0.9,0.9
			c0,0.3-0.1,0.9-0.2,1.6c0,0.2,0,0.3-0.1,0.5L95.8,83.3z"/>
		<path d="M127.2,79.7c-1.8,2.1-3.8,3.8-5.8,5c-2.1,1.2-4,1.8-5.7,1.8c-1.5,0-2.6-0.3-3.6-1c-0.9-0.7-1.4-1.6-1.4-2.7
			c0-1.5,0.8-2.7,2.3-3.8s3.4-1.6,5.5-1.6c0.9,0,1.6,0.1,2.1,0.3c0.5,0.2,0.8,0.5,0.8,0.9c0,0.6-0.7,1-2.1,1.3
			c0.1-0.1,0.1-0.2,0.1-0.4c0-0.8-0.7-1.3-2-1.3c-1.1,0-2.2,0.4-3.1,1.3c-0.9,0.9-1.4,1.8-1.4,2.9c0,0.8,0.3,1.5,0.9,2.1
			c0.6,0.5,1.5,0.8,2.5,0.8c2.8,0,6-2,9.8-6L127.2,79.7z"/>
		<path d="M126.3,82.8c0,1.5,0.9,2.3,2.8,2.3c1.6,0,3.4-0.5,5.4-1.6s3.7-2.5,5.3-4.2l1,0.4c-1.5,1.9-3.4,3.5-5.8,4.8
			c-2.4,1.3-4.6,1.9-6.7,1.9c-1.4,0-2.4-0.3-3.2-0.9c-0.8-0.6-1.2-1.4-1.2-2.5c0-1.5,0.7-2.8,2.2-3.9c1.4-1.1,3.2-1.6,5.2-1.6
			c1,0,1.8,0.2,2.3,0.5c0.6,0.3,0.9,0.8,0.9,1.4c0,0.9-0.8,1.8-2.4,2.5C130.3,82.5,128.4,82.8,126.3,82.8z M126.4,82.1
			c1.6-0.1,2.9-0.4,4.1-0.9c1.1-0.6,1.7-1.2,1.7-2c0-0.7-0.4-1-1.3-1c-1,0-2,0.4-2.8,1.1C127.1,80.1,126.6,81,126.4,82.1z"/>
		<path d="M140.4,86c-0.5,0.2-0.9,0.3-1.2,0.3c-0.8,0-1.2-0.2-1.2-0.7c0-0.2,0.1-0.8,0.4-1.8l0.6-2c0.3-1.2,0.5-2,0.5-2.6
			c0-0.3-0.1-0.6-0.4-0.8c0.8-0.2,1.4-0.3,1.9-0.3c0.5,0,0.8,0.2,0.8,0.7c0,0.3-0.2,1-0.6,2.3l-0.6,2.3c1.4-1.9,2.9-3.4,4.3-4.5
			c1.4-1.1,2.8-1.6,3.9-1.6c0.4,0,0.8,0.1,1.1,0.2c0.3,0.2,0.5,0.4,0.5,0.6c0,0.4-0.6,0.9-1.7,1.5c-0.3-0.4-0.7-0.6-1.2-0.6
			c-1,0-2.2,0.7-3.7,2.1c-0.9,0.9-1.7,1.8-2.4,2.7c-0.7,0.9-1,1.6-1,2L140.4,86z"/>
		<path d="M167.6,81.5c-1.2,1.5-2.4,2.6-3.7,3.5c-1.3,0.9-2.4,1.3-3.5,1.3c-0.8,0-1.5-0.2-1.9-0.7s-0.7-1.1-0.7-2
			c0-1.7,0.7-3.1,2.1-4.3c1.4-1.2,3.1-1.9,5-1.9c1.1,0,2.4,0.2,3.7,0.7l1.2-4.2c-0.7,0.1-1.2,0.1-1.7,0.1c-0.7,0-1.2-0.1-1.5-0.3
			c-0.3-0.2-0.6-0.6-0.7-1.2c0.5,0.3,1.4,0.4,2.5,0.4c1.4,0,2.8-0.2,4.1-0.5l-2.5,8.6c-0.3,1-0.4,1.8-0.4,2.5c0,0.9,0.4,1.3,1.1,1.3
			c0.7,0,1.9-0.6,3.6-1.8c1.7-1.2,3.1-2.4,4.2-3.7l0.9,0.4c-1.3,1.7-3,3.2-5,4.6s-3.6,2-4.8,2c-1.5,0-2.3-0.8-2.3-2.5
			C167.3,83,167.4,82.3,167.6,81.5z M168.2,79.4c-1.6-0.7-2.9-1.1-3.9-1.1c-1.1,0-2.1,0.5-2.9,1.4c-0.8,1-1.2,2.1-1.2,3.4
			c0,1.1,0.5,1.6,1.5,1.6c1.1,0,3.1-1.6,6.2-4.9C167.9,79.8,168,79.7,168.2,79.4z"/>
		<path d="M186.1,81.3c-1,1.4-2.2,2.6-3.6,3.5c-1.4,1-2.7,1.5-3.7,1.5c-0.8,0-1.4-0.2-1.9-0.7c-0.5-0.5-0.7-1.2-0.7-2
			c0-1.6,0.7-3.1,2.2-4.3c1.4-1.2,3.1-1.9,5-1.9c1.1,0,2.4,0.2,3.7,0.7c0.2-0.5,1-0.7,2.4-0.7c0.1,0,0.2,0,0.4,0
			c-0.4,0.5-0.8,1.1-1,1.9l-0.2,0.7c-0.2,0.7-0.3,1.6-0.3,2.6c0,1.1,0.4,1.7,1.2,1.7c0.8,0,1.9-0.5,3.4-1.4c1.4-0.9,2.8-2.1,4.2-3.6
			l0.9,0.4c-1.4,1.7-3,3.2-4.8,4.3c-1.8,1.2-3.3,1.7-4.6,1.7c-1.6,0-2.5-0.9-2.5-2.8C186,82.5,186,82,186.1,81.3z M186.6,79.4
			c-1.6-0.7-2.9-1.1-4-1.1c-1.1,0-2.1,0.5-3,1.4c-0.8,1-1.3,2.1-1.3,3.4c0,1.1,0.5,1.6,1.5,1.6c1.1,0,3.2-1.6,6.2-4.9
			C186.2,79.8,186.4,79.7,186.6,79.4z"/>
		<path d="M205,81.3c-1,1.5-2.2,2.7-3.5,3.6c-1.3,0.9-2.4,1.4-3.5,1.4c-0.8,0-1.5-0.2-2-0.6c-0.5-0.4-0.8-0.9-0.8-1.6
			c0-0.8,0.4-2.3,1.2-4.5c0.2-0.6,0.3-1,0.3-1.1c0-0.2-0.1-0.3-0.2-0.5l1.6,0c0.7,0,1,0.2,1,0.5c0,0.2-0.2,0.9-0.7,1.9
			c-0.1,0.3-0.2,0.5-0.3,0.7l-0.2,0.5c-0.3,1-0.5,1.7-0.5,2.2c0,0.8,0.4,1.2,1.2,1.2c1.3,0,2.9-1.1,4.8-3.2c1.6-1.8,2.4-3,2.4-3.8
			c0-0.1,0-0.2-0.1-0.3c0.6-0.1,1.1-0.2,1.6-0.2c0.7,0,1,0.1,1,0.4c0,0.1,0,0.2-0.1,0.3c0,0.1-0.1,0.3-0.2,0.6
			c0,0.1-0.1,0.3-0.2,0.6c-0.1,0.3-0.2,0.5-0.2,0.6l-0.1,0.4c-0.2,0.9-0.4,1.7-0.4,2.4c0,1.1,0.4,1.7,1.2,1.7c1.8,0,4-1.7,6.7-5.2
			l1,0.4c-3.1,4.1-5.9,6.2-8.5,6.2c-1.7,0-2.6-1-2.6-3.1C204.9,82.3,205,81.9,205,81.3z"/>
		<path d="M222.5,81.5c-1.2,1.5-2.4,2.6-3.7,3.5c-1.3,0.9-2.4,1.3-3.5,1.3c-0.8,0-1.5-0.2-1.9-0.7s-0.7-1.1-0.7-2
			c0-1.7,0.7-3.1,2.1-4.3c1.4-1.2,3.1-1.9,5-1.9c1.1,0,2.4,0.2,3.7,0.7l1.2-4.2C224,74,223.5,74,223,74c-0.7,0-1.2-0.1-1.5-0.3
			c-0.3-0.2-0.6-0.6-0.7-1.2c0.5,0.3,1.4,0.4,2.5,0.4c1.4,0,2.8-0.2,4.1-0.5l-2.5,8.6c-0.3,1-0.4,1.8-0.4,2.5c0,0.9,0.4,1.3,1.1,1.3
			c0.7,0,1.9-0.6,3.6-1.8c1.7-1.2,3.1-2.4,4.2-3.7l0.9,0.4c-1.3,1.7-3,3.2-5,4.6s-3.6,2-4.8,2c-1.5,0-2.3-0.8-2.3-2.5
			C222.2,83,222.3,82.3,222.5,81.5z M223.1,79.4c-1.6-0.7-2.9-1.1-3.9-1.1c-1.1,0-2.1,0.5-2.9,1.4c-0.8,1-1.2,2.1-1.2,3.4
			c0,1.1,0.5,1.6,1.5,1.6c1.1,0,3.1-1.6,6.2-4.9C222.7,79.8,222.9,79.7,223.1,79.4z"/>
	</g>
</g>
</svg>
