<?xml version="1.0" encoding="utf-8"?>
<!-- Generator: Adobe Illustrator 18.0.0, SVG Export Plug-In . SVG Version: 6.00 Build 0)  -->
<!DOCTYPE svg PUBLIC "-//W3C//DTD SVG 1.1//EN" "http://www.w3.org/Graphics/SVG/1.1/DTD/svg11.dtd">
<svg version="1.1" id="Layer_1" xmlns="http://www.w3.org/2000/svg" xmlns:xlink="http://www.w3.org/1999/xlink" x="0px" y="0px"
	 viewBox="0 0 960 560" enable-background="new 0 0 960 560" xml:space="preserve">
<g>
	<g>
		<path fill="#00B7F7" d="M318.8,255.7l-21.3,88.2c-2,8.1-2.9,13.3-2.9,15.7c0,2.4,0.7,4.9,2.1,7.6c-10.6,4.4-20.3,6.6-29.1,6.6
			c-5.5,0-8.2-1.7-8.2-5.3c0-1.9,1-7.1,3.1-15.8l23.4-96.9l-2.4,0c-9.5,0-19.6,1.9-30.5,5.6c5.1-9,9.6-14.9,13.6-17.5
			c3.9-2.6,10.2-3.9,18.8-4l4.3,0l18.6-76.4l-3.5,0c-22.9,0.1-41.1,5.2-54.6,15.4c4-13.5,11.1-22.5,21.2-27c7.1-3.2,29.3-4.9,66.5-5
			l41.4-0.2c30.9-0.1,56.6-2.5,77-7c-6.5,9.3-13.2,15.5-20.3,18.7c-7.1,3.1-18,4.7-32.7,4.8l-13.9-0.1l-48.2,0.2l-18.4,76.4l34-0.2
			c21.1-0.1,38.5-2.3,52.3-6.7c-5,9.6-10.8,15.8-17.3,18.4c-6.6,2.7-19.4,4-38.7,4.1L318.8,255.7z"/>
		<path fill="#10D600" d="M434.6,214.9c-2.5-4.4-3.8-9-3.8-13.6c-0.1-15.3,14.3-29.1,43.1-41.3c28.8-12.2,61.5-18.5,98.1-18.6
			c38.5-0.2,68.8,6.6,90.9,20.2c22.2,13.7,33.3,32.5,33.4,56.5c0.1,31.9-16.9,60.1-51.1,84.5c-18.1,12.9-40.8,23.5-68,31.8
			c-27.2,8.3-53.3,12.5-78.2,12.6c-24,0.1-36-7.1-36-21.6c0-5.3,2-16.2,6-32.7l20.1-83.4c1.8-7.2,2.6-12.3,2.6-15.4
			c0-3-1.3-5.7-3.8-8.1c14-4.3,23.7-6.5,29.1-6.5c6.5,0,9.8,3,9.8,9.1c0,1.4-1.6,8.9-4.9,22.3L505,280.5c-4.2,17.8-6.3,29-6.3,33.6
			c0,5.1,2.2,8.6,6.4,10.4c4.3,1.8,12.3,2.7,24,2.6c38.1-0.2,70-9.7,95.7-28.6c25.6-18.9,38.4-42.3,38.3-70.1
			c-0.1-21.5-9.6-38.7-28.3-51.5c-18.7-12.8-43.7-19.2-74.8-19.1c-25.3,0.1-48.9,5.2-70.8,15.1C467.5,182.9,449.2,196.8,434.6,214.9
			z"/>
	</g>
	<g>
		<path d="M243.2,405.8h-0.5c-2.3,0-4.4,0.3-6.1,0.9c0.4-1,0.9-1.6,1.7-1.9c0.7-0.3,2.3-0.4,4.6-0.4h0.9l0.8-1.9
			c1-2.6,2.7-4.5,5-5.7c2.8-1.4,6-2.2,9.4-2.2c1.3,0,2.5,0.2,3.5,0.5c1,0.3,1.5,0.7,1.5,1.1c0,0.5-1,1-3,1.6
			c-0.6-1.2-1.8-1.8-3.8-1.8c-3.5,0-6.1,1.9-7.6,5.8l-1,2.6h8.2c3.7,0,6.5-0.1,8.2-0.3c-0.7,0.8-1.6,1.3-2.6,1.5
			c-1,0.2-3.4,0.3-7.4,0.3h-7l-4,10.1c-0.4,1-0.6,1.8-0.6,2.6c0,0.5,0.2,0.9,0.6,1.3c-1.6,0.3-2.8,0.4-3.6,0.4
			c-1.3,0-1.9-0.4-1.9-1.1c0-0.6,0.3-1.5,0.8-2.8L243.2,405.8z"/>
		<path d="M262.8,415.1c-1.1,0.3-1.9,0.4-2.6,0.4c-1.6,0-2.4-0.4-2.4-1.1c0-0.4,0.3-1.3,0.8-2.7l1.2-2.9c0.7-1.7,1.1-3,1.1-3.9
			c0-0.5-0.3-0.8-0.8-1.1c1.6-0.3,3-0.4,4-0.4c1.1,0,1.6,0.3,1.6,1c0,0.4-0.4,1.6-1.2,3.4l-1.3,3.4c2.9-2.9,5.9-5.1,8.9-6.7
			c3-1.6,5.7-2.4,8.1-2.4c0.9,0,1.6,0.1,2.2,0.4c0.6,0.2,0.9,0.5,0.9,0.9c0,0.5-1.2,1.3-3.6,2.2c-0.6-0.6-1.4-0.9-2.5-0.9
			c-2,0-4.5,1.1-7.6,3.2c-1.9,1.3-3.6,2.7-5,4.1c-1.4,1.4-2.1,2.4-2.1,3L262.8,415.1z"/>
		<path d="M287.7,410.3c0,2.3,1.9,3.4,5.8,3.4c3.4,0,7.1-0.8,11.1-2.4c4-1.6,7.7-3.7,10.9-6.3l2,0.6c-3.1,2.9-7,5.2-11.9,7.1
			s-9.5,2.8-13.9,2.8c-2.8,0-5-0.5-6.7-1.4c-1.6-0.9-2.4-2.2-2.4-3.7c0-2.3,1.5-4.2,4.4-5.8c3-1.6,6.5-2.4,10.7-2.4
			c2,0,3.6,0.3,4.8,0.8s1.8,1.2,1.8,2c0,1.4-1.7,2.6-5,3.7C296,409.8,292.1,410.3,287.7,410.3z M287.9,409.2
			c3.3-0.1,6.1-0.6,8.4-1.4c2.3-0.9,3.5-1.8,3.5-3c0-1-0.9-1.5-2.7-1.5c-2.1,0-4.1,0.6-5.9,1.7C289.5,406.2,288.4,407.5,287.9,409.2
			z"/>
		<path d="M315.8,410.3c0,2.3,1.9,3.4,5.8,3.4c3.4,0,7.1-0.8,11.1-2.4c4-1.6,7.7-3.7,10.9-6.3l2,0.6c-3.1,2.9-7,5.2-11.9,7.1
			s-9.5,2.8-13.9,2.8c-2.8,0-5-0.5-6.7-1.4c-1.6-0.9-2.4-2.2-2.4-3.7c0-2.3,1.5-4.2,4.4-5.8c3-1.6,6.5-2.4,10.7-2.4
			c2,0,3.6,0.3,4.8,0.8c1.2,0.5,1.8,1.2,1.8,2c0,1.4-1.7,2.6-5,3.7C324,409.8,320.2,410.3,315.8,410.3z M316,409.2
			c3.3-0.1,6.1-0.6,8.4-1.4c2.3-0.9,3.5-1.8,3.5-3c0-1-0.9-1.5-2.7-1.5c-2.1,0-4.1,0.6-5.9,1.7C317.5,406.2,316.4,407.5,316,409.2z"
			/>
		<path d="M365.1,405.6c-3.2,3.1-6.5,5.5-9.7,7.2c-3.3,1.8-6.2,2.6-8.7,2.6c-1.8,0-3.3-0.4-4.4-1.1c-1.1-0.7-1.7-1.6-1.7-2.8
			c0-0.6,0.2-1.6,0.7-2.7l4.7-11.8c-0.6,0-1.1,0.1-1.6,0.1c-3.6,0-5.4-0.8-5.4-2.3v-0.3c1.9,0.5,4,0.8,6.3,0.8s4.4-0.3,6.2-0.9
			l-5.4,14.1c-0.5,1.3-0.7,2.1-0.7,2.6c0,1.3,1,2,2.9,2c1.9,0,3.8-0.5,5.7-1.6s5-3.3,9.3-6.8L365.1,405.6z"/>
		<path d="M378.7,408c-2,2.1-4.5,3.8-7.4,5.3c-2.9,1.5-5.5,2.2-7.7,2.2c-1.7,0-3-0.4-4-1.1c-1-0.7-1.5-1.7-1.5-3
			c0-2.5,1.5-4.6,4.4-6.5c3-1.9,6.4-2.8,10.3-2.8c2.4,0,4.9,0.4,7.7,1.1c0.4-0.7,2.1-1.1,5-1.1c0.2,0,0.5,0,0.9,0
			c-0.9,0.7-1.6,1.6-2,2.8l-0.4,1c-0.5,1.1-0.7,2.4-0.7,3.9c0,1.7,0.8,2.6,2.4,2.6c1.7,0,4-0.7,6.9-2.1c2.9-1.4,5.8-3.2,8.6-5.4
			l1.8,0.6c-2.9,2.6-6.2,4.7-9.9,6.5c-3.7,1.7-6.9,2.6-9.6,2.6c-3.4,0-5.1-1.4-5.1-4.2C378.6,409.8,378.6,409,378.7,408z
			 M379.8,405.2c-3.3-1.1-6-1.6-8.2-1.6c-2.4,0-4.4,0.7-6.1,2.2c-1.7,1.4-2.6,3.1-2.6,5.1c0,1.6,1,2.4,3.1,2.4
			c2.2,0,6.5-2.5,12.8-7.4C378.9,405.8,379.3,405.6,379.8,405.2z"/>
		<path d="M404.4,411c5.5-5.9,10.5-8.8,14.9-8.8c3.5,0,5.2,1.7,5.2,5.2l0,1.4c0,1.6,0.2,2.8,0.5,3.4s0.9,0.9,1.8,0.9
			c1.3,0,2.9-0.5,4.6-1.6c1.7-1.1,4.5-3.2,8.3-6.5l2,0.6c-3.4,3.3-6.5,5.7-9.2,7.2c-2.7,1.6-5.2,2.4-7.3,2.4c-2,0-3.4-0.5-4.2-1.4
			c-0.8-1-1.2-2.6-1.2-5l0-1c0-1.3-0.2-2.2-0.5-2.7c-0.3-0.5-0.9-0.8-1.7-0.8c-2.1,0-5.4,2.1-10,6.2c-1.1,1-1.9,1.7-2.2,2
			c-1.2,1.1-1.8,1.8-1.8,2.3c0,0.2,0.1,0.4,0.3,0.5c-0.9,0.2-1.7,0.3-2.3,0.3c-1.6,0-2.4-0.4-2.4-1.3c0-0.3,0.2-1.4,0.6-3.4l0.5-2.6
			c0.2-1.1,0.4-1.9,0.4-2.5c0-0.8-0.4-1.5-1.1-2c0.3-0.1,0.9-0.1,1.6-0.3c1-0.2,1.7-0.3,2.3-0.3c1.2,0,1.8,0.4,1.8,1.3
			c0,0.5-0.1,1.3-0.4,2.4c0,0.3-0.1,0.5-0.1,0.7L404.4,411z"/>
		<path d="M469.2,405.6c-3.8,3.2-7.8,5.7-12,7.5c-4.2,1.8-8.2,2.7-11.8,2.7c-3,0-5.5-0.5-7.3-1.6c-1.9-1-2.8-2.4-2.8-4
			c0-2.2,1.6-4.1,4.8-5.7s7-2.4,11.4-2.4c1.8,0,3.2,0.2,4.3,0.5c1.1,0.3,1.7,0.8,1.7,1.3c0,0.9-1.5,1.5-4.4,1.9
			c0.2-0.2,0.2-0.4,0.2-0.5c0-1.3-1.3-1.9-4-1.9c-2.3,0-4.5,0.7-6.4,2c-2,1.3-2.9,2.7-2.9,4.3c0,1.3,0.7,2.3,2,3.1
			c1.3,0.8,3,1.2,5.1,1.2c5.7,0,12.5-3,20.2-9L469.2,405.6z"/>
		<path d="M467.4,410.3c0,2.3,1.9,3.4,5.8,3.4c3.4,0,7.1-0.8,11.1-2.4c4-1.6,7.7-3.7,10.9-6.3l2,0.6c-3.1,2.9-7,5.2-11.9,7.1
			s-9.5,2.8-13.9,2.8c-2.8,0-5-0.5-6.7-1.4c-1.6-0.9-2.4-2.2-2.4-3.7c0-2.3,1.5-4.2,4.4-5.8c3-1.6,6.5-2.4,10.7-2.4
			c2,0,3.6,0.3,4.8,0.8c1.2,0.5,1.8,1.2,1.8,2c0,1.4-1.7,2.6-5,3.7C475.7,409.8,471.8,410.3,467.4,410.3z M467.6,409.2
			c3.3-0.1,6.1-0.6,8.4-1.4c2.3-0.9,3.5-1.8,3.5-3c0-1-0.9-1.5-2.7-1.5c-2.1,0-4.1,0.6-5.9,1.7C469.2,406.2,468,407.5,467.6,409.2z"
			/>
		<path d="M496.5,415.1c-1.1,0.3-1.9,0.4-2.6,0.4c-1.6,0-2.4-0.4-2.4-1.1c0-0.4,0.3-1.3,0.8-2.7l1.2-2.9c0.7-1.7,1.1-3,1.1-3.9
			c0-0.5-0.3-0.8-0.8-1.1c1.6-0.3,3-0.4,4-0.4c1.1,0,1.6,0.3,1.6,1c0,0.4-0.4,1.6-1.2,3.4l-1.3,3.4c2.9-2.9,5.9-5.1,8.9-6.7
			c3-1.6,5.7-2.4,8.1-2.4c0.9,0,1.6,0.1,2.2,0.4c0.6,0.2,0.9,0.5,0.9,0.9c0,0.5-1.2,1.3-3.6,2.2c-0.6-0.6-1.4-0.9-2.5-0.9
			c-2,0-4.5,1.1-7.6,3.2c-1.9,1.3-3.6,2.7-5,4.1c-1.4,1.4-2.1,2.4-2.1,3L496.5,415.1z"/>
		<path d="M552.7,408.3c-2.4,2.2-5,3.9-7.6,5.2c-2.7,1.3-5,1.9-7.1,1.9c-1.7,0-3-0.4-4-1.1c-1-0.7-1.5-1.7-1.5-2.9
			c0-2.5,1.5-4.6,4.4-6.5s6.3-2.8,10.2-2.8c2.3,0,4.9,0.4,7.6,1.1l2.5-6.3c-1.4,0.1-2.5,0.2-3.4,0.2c-1.4,0-2.4-0.2-3-0.5
			c-0.6-0.3-1.2-0.9-1.5-1.8c1.1,0.4,2.8,0.6,5.2,0.6c2.9,0,5.7-0.3,8.4-0.8l-5.1,12.9c-0.6,1.4-0.9,2.7-0.9,3.7c0,1.3,0.8,2,2.3,2
			c1.5,0,4-0.9,7.5-2.6c3.5-1.8,6.4-3.6,8.7-5.5l1.9,0.6c-2.8,2.6-6.2,4.8-10.4,6.9c-4.2,2-7.5,3-10,3c-3.2,0-4.7-1.3-4.7-3.8
			C552.1,410.6,552.3,409.5,552.7,408.3z M553.9,405.2c-3.2-1.1-5.9-1.6-8.1-1.6c-2.3,0-4.4,0.7-6.1,2.2c-1.7,1.4-2.6,3.1-2.6,5.1
			c0,1.6,1,2.4,3.1,2.4c2.2,0,6.5-2.5,12.8-7.4C553.2,405.8,553.5,405.5,553.9,405.2z"/>
		<path d="M590.8,408c-2,2.1-4.5,3.8-7.4,5.3c-2.9,1.5-5.5,2.2-7.7,2.2c-1.7,0-3-0.4-4-1.1c-1-0.7-1.5-1.7-1.5-3
			c0-2.5,1.5-4.6,4.4-6.5c3-1.9,6.4-2.8,10.3-2.8c2.4,0,4.9,0.4,7.7,1.1c0.4-0.7,2.1-1.1,5-1.1c0.2,0,0.5,0,0.9,0
			c-0.9,0.7-1.6,1.6-2,2.8l-0.4,1c-0.5,1.1-0.7,2.4-0.7,3.9c0,1.7,0.8,2.6,2.4,2.6c1.7,0,4-0.7,6.9-2.1c2.9-1.4,5.8-3.2,8.6-5.4
			l1.8,0.6c-2.9,2.6-6.2,4.7-9.9,6.5c-3.7,1.7-6.9,2.6-9.6,2.6c-3.4,0-5.1-1.4-5.1-4.2C590.7,409.8,590.7,409,590.8,408z
			 M591.9,405.2c-3.3-1.1-6-1.6-8.2-1.6c-2.4,0-4.4,0.7-6.1,2.2c-1.7,1.4-2.6,3.1-2.6,5.1c0,1.6,1,2.4,3.1,2.4
			c2.2,0,6.5-2.5,12.8-7.4C591,405.8,591.3,405.6,591.9,405.2z"/>
		<path d="M629.9,407.9c-2.2,2.2-4.6,4-7.2,5.4c-2.7,1.4-5,2.1-7.1,2.1c-1.7,0-3.1-0.3-4.1-0.9c-1.1-0.6-1.6-1.4-1.6-2.3
			c0-1.2,0.8-3.5,2.5-6.8c0.5-0.9,0.7-1.5,0.7-1.7s-0.1-0.5-0.4-0.8l3.2,0c1.4,0,2.1,0.3,2.1,0.8c0,0.3-0.5,1.3-1.4,2.9
			c-0.3,0.5-0.5,0.8-0.5,1l-0.4,0.7c-0.7,1.4-1,2.5-1,3.3c0,1.2,0.8,1.7,2.4,1.7c2.6,0,5.9-1.6,9.9-4.9c3.3-2.6,4.9-4.5,4.9-5.6
			c0-0.2-0.1-0.3-0.3-0.5c1.3-0.2,2.4-0.3,3.3-0.3c1.4,0,2.1,0.2,2.1,0.6c0,0.1-0.1,0.3-0.2,0.4c-0.1,0.1-0.2,0.4-0.4,0.9
			c0,0.1-0.2,0.4-0.5,1c-0.2,0.4-0.4,0.7-0.4,0.9l-0.2,0.6c-0.5,1.3-0.8,2.5-0.8,3.6c0,1.7,0.8,2.6,2.5,2.6c3.7,0,8.3-2.6,13.9-7.7
			l2,0.6c-6.4,6.2-12.3,9.3-17.6,9.3c-3.6,0-5.4-1.6-5.4-4.7C629.7,409.6,629.8,408.8,629.9,407.9z"/>
		<path d="M665.9,408.3c-2.4,2.2-5,3.9-7.6,5.2s-5,1.9-7.1,1.9c-1.7,0-3-0.4-4-1.1c-1-0.7-1.5-1.7-1.5-2.9c0-2.5,1.5-4.6,4.4-6.5
			c2.9-1.9,6.3-2.8,10.2-2.8c2.3,0,4.9,0.4,7.6,1.1l2.5-6.3c-1.4,0.1-2.5,0.2-3.4,0.2c-1.4,0-2.4-0.2-3-0.5
			c-0.6-0.3-1.2-0.9-1.5-1.8c1.1,0.4,2.8,0.6,5.2,0.6c2.9,0,5.7-0.3,8.4-0.8l-5.1,12.9c-0.6,1.4-0.9,2.7-0.9,3.7c0,1.3,0.8,2,2.3,2
			c1.5,0,4-0.9,7.5-2.6c3.5-1.8,6.4-3.6,8.7-5.5l1.9,0.6c-2.8,2.6-6.2,4.8-10.4,6.9c-4.2,2-7.5,3-10,3c-3.2,0-4.7-1.3-4.7-3.8
			C665.4,410.6,665.6,409.5,665.9,408.3z M667.2,405.2c-3.2-1.1-5.9-1.6-8.1-1.6c-2.3,0-4.4,0.7-6.1,2.2c-1.7,1.4-2.6,3.1-2.6,5.1
			c0,1.6,1,2.4,3.1,2.4c2.2,0,6.5-2.5,12.8-7.4C666.4,405.8,666.7,405.5,667.2,405.2z"/>
	</g>
</g>
</svg>
